<?xml version="1.0" encoding="utf-8"?>
<!-- Generator: Adobe Illustrator 15.0.0, SVG Export Plug-In . SVG Version: 6.00 Build 0)  -->
<!DOCTYPE svg PUBLIC "-//W3C//DTD SVG 1.1//EN" "http://www.w3.org/Graphics/SVG/1.1/DTD/svg11.dtd">
<svg version="1.1" id="Layer_1" xmlns="http://www.w3.org/2000/svg" xmlns:xlink="http://www.w3.org/1999/xlink" x="0px" y="0px"
	 width="1008px" height="1008px" viewBox="0 0 1008 1008" enable-background="new 0 0 1008 1008" xml:space="preserve">
<path fill="#656664" d="M571.5,523.25l-37.667,20.25L504,522.334l-5.167-1.723l6.492-0.861L523,507.125l-13.625,7.625
	c0,0-0.5-1.25-1.125-1s20.917-12.417,20.917-12.417L571.5,523.25z"/>
<polygon fill="#3C191D" points="571.5,523.25 529.167,501.333 565.167,479.583 609.667,504 "/>
<path fill="#301D1F" d="M517.167,573.167L485,555.667V521c0,0,2-1.999,7-2.666l12,4l27.501,18.499L517.167,573.167z"/>
<polygon fill="#FF0500" points="517,406.333 649.667,481.667 663.5,478.75 663.5,447.75 517,364.25 "/>
<polygon fill="#FF0400" points="452.75,418.5 488.083,436.925 488.083,445.667 452.083,463.083 411.75,442 376,459.5 417.25,479.75 
	378,502.5 334.75,479.5 334.75,446.25 383,418.5 415.75,439.25 "/>
<polygon fill="#FF0400" points="334.75,560 374.25,543 485,602.75 485,636.25 488,638.75 488,644 "/>
<polygon fill="#FF0500" points="571.5,523.25 609.25,502.5 663.5,532.25 663.5,556.75 634,570.5 633.75,558.75 "/>
<polygon fill="#656467" points="609.667,504 565.167,479.833 607.5,457.833 649.667,481.667 "/>
<polygon fill="#5E5B5C" points="633.334,658.833 633.334,638 664.167,624.333 664.834,643 "/>
<polygon fill="#5E5B5C" points="664.834,611.667 633.334,596.167 633.334,570.5 640.001,570.5 664.834,559.667 "/>
<polygon fill="#443836" points="664.834,611.667 664.167,624.333 633.334,638 633.334,596.167 "/>
<polygon fill="#A32528" points="633.334,638 517.167,573.167 517.167,553 499.834,561.5 511.001,551.833 531.501,540.833 
	633.334,596.167 "/>
<polygon fill="#A32528" points="505.667,489.5 505.667,472.5 525.167,457.833 565.828,479.49 529.167,501.333 "/>
<polygon fill="#A32528" points="455.724,457.833 416.911,479.583 457.167,500.667 492,479.25 "/>
<polygon fill="#491E22" points="420.25,521 457.167,500.667 416.911,479.583 381.163,500.667 "/>
<polygon fill="#636567" points="420.25,521 378.75,540.833 343.25,522.5 381.163,500.667 "/>
<polygon fill="#30282A" points="371.75,544.25 337,528.25 337,525.125 343.25,522.5 378.75,540.833 "/>
<polygon fill="#560F13" points="371.75,544.25 337,560 337,528.25 "/>
<polygon fill="#5F1B1C" points="505.667,489.5 492,480.25 505.667,472.5 "/>
<polygon fill="#380A0D" points="492,480.25 485.483,475.403 486,435.75 525.167,457.833 505.667,473.125 "/>
<polygon fill="#700F12" points="485.881,475.698 455.724,457.833 460.5,457.833 486.188,444.5 "/>
<polygon fill="#521316" points="383,418.5 417.625,398.5 452.75,418.5 415.75,439.25 "/>
<polygon fill="#646365" points="452.75,418.5 485.881,400.75 485.881,359.25 417.625,398.5 "/>
<polygon fill="#3E080F" points="517,406.333 485.881,388.875 485.881,359.25 497.375,351.625 517,364.25 "/>
<polygon fill="#646661" points="485.881,400.75 486,435.75 518.872,454.284 519.539,407.775 497.735,395.526 "/>
<polygon fill="#544145" points="485.881,400.75 485.881,388.375 497.735,395.526 "/>
<polygon fill="#344445" points="640.001,570.5 634,570.5 663.5,556.75 664.834,559.667 "/>
<polygon fill="#666564" points="485,602.75 485,555.667 518.667,573.167 518.667,618.834 "/>
<polygon fill="#403B39" points="488,644 496.833,649.834 519.5,636.667 518.667,617.084 485,602.75 485,636.25 488,638 "/>
<path fill="#656664" d="M492,518.334l28.583-16.917c0,0,3.334-1.5,3.917-0.417c0,0-3.749,2.583-6.583,4.333
	s-22.942,13.992-22.942,13.992L492,518.334z"/>
<path fill="#656664" d="M496.225,519.742c0,0,6.775-4.409,8.191-4.659c0,0,2.833-0.167,0.917,1.5l-6.658,3.976L496.225,519.742z"/>
</svg>
